<svg preserveAspectRatio="none" overflow="visible" style="display: block;" width="12" height="10.5" viewBox="0 0 12 10.5" fill="none" xmlns="http://www.w3.org/2000/svg">
<g id="Container">
<path id="Symbol" d="M1.5 0C1.07812 0.015625 0.726562 0.164062 0.445312 0.445312V0.445312C0.164062 0.726562 0.015625 1.07812 0 1.5V9C0.015625 9.42188 0.164062 9.77344 0.445312 10.0547C0.726562 10.3359 1.07812 10.4844 1.5 10.5H10.5C10.9219 10.4844 11.2734 10.3359 11.5547 10.0547C11.8359 9.77344 11.9844 9.42188 12 9V3.75C11.9844 3.32812 11.8359 2.97656 11.5547 2.69531C11.2734 2.41406 10.9219 2.26562 10.5 2.25H1.875C1.64062 2.23438 1.51562 2.10938 1.5 1.875C1.51562 1.64062 1.64062 1.51562 1.875 1.5H10.5C10.7188 1.5 10.8984 1.42969 11.0391 1.28906C11.1797 1.14844 11.25 0.96875 11.25 0.75C11.25 0.53125 11.1797 0.351562 11.0391 0.210938C10.8984 0.0703125 10.7188 0 10.5 0H1.5V0V0M9.75 5.625C9.96875 5.625 10.1484 5.69531 10.2891 5.83594V5.83594C10.4297 5.97656 10.5 6.15625 10.5 6.375C10.5 6.59375 10.4297 6.77344 10.2891 6.91406C10.1484 7.05469 9.96875 7.125 9.75 7.125C9.53125 7.125 9.35156 7.05469 9.21094 6.91406C9.07031 6.77344 9 6.59375 9 6.375C9 6.15625 9.07031 5.97656 9.21094 5.83594C9.35156 5.69531 9.53125 5.625 9.75 5.625V5.625V5.625" fill="#6B7280"/>
</g>
</svg>
